<?xml version="1.0" encoding="UTF-8"?>
<svg id="Capa_2" data-name="Capa 2" xmlns="http://www.w3.org/2000/svg" viewBox="0 0 83.42 78.67">
  <defs>
    <style>
      .cls-1 {
        fill: #fff;
      }

      .cls-2 {
        fill: #ed1b23;
        fill-rule: evenodd;
      }
    </style>
  </defs>
  <g id="Layer_13" data-name="Layer 13">
    <path class="cls-1" d="M13.51,71.53h.92c.85,0,1.5-.17,1.93-.52.43-.33.63-.82.63-1.47s-.17-1.14-.54-1.45c-.35-.32-.92-.47-1.67-.47h-1.26v3.91ZM19.8,69.45c0,1.4-.44,2.49-1.33,3.24-.88.76-2.13,1.12-3.76,1.12h-1.2v4.67h-2.79v-13.14h4.2c1.59,0,2.81.35,3.65,1.03.82.68,1.23,1.71,1.23,3.08h0ZM33.06,78.48h-2.78v-5.67h-5.21v5.67h-2.78v-13.14h2.78v5.15h5.21v-5.15h2.78v13.14ZM48.31,71.89c0,2.18-.54,3.85-1.63,5.02-1.07,1.17-2.62,1.75-4.64,1.75s-3.55-.59-4.64-1.75c-1.07-1.17-1.61-2.84-1.61-5.04s.54-3.85,1.63-5c1.07-1.15,2.64-1.74,4.66-1.74s3.55.58,4.63,1.74c1.07,1.17,1.61,2.84,1.61,5.02h0ZM38.71,71.89c0,1.47.28,2.57.84,3.32.55.76,1.39,1.12,2.49,1.12,2.23,0,3.35-1.48,3.35-4.44s-1.11-4.44-3.32-4.44c-1.12,0-1.96.38-2.51,1.12-.57.74-.85,1.85-.85,3.31h0ZM55.54,78.48h-2.78v-10.81h-3.57v-2.32h9.91v2.32h-3.57v10.81ZM72.7,71.89c0,2.18-.54,3.85-1.61,5.02-1.09,1.17-2.64,1.75-4.64,1.75s-3.57-.59-4.64-1.75c-1.09-1.17-1.63-2.84-1.63-5.04s.55-3.85,1.63-5c1.09-1.15,2.64-1.74,4.66-1.74s3.57.58,4.63,1.74c1.07,1.17,1.61,2.84,1.61,5.02h0ZM63.1,71.89c0,1.47.28,2.57.84,3.32.57.76,1.4,1.12,2.51,1.12,2.23,0,3.33-1.48,3.33-4.44s-1.11-4.44-3.31-4.44c-1.11,0-1.94.38-2.51,1.12-.57.74-.85,1.85-.85,3.31h0Z"/>
    <path class="cls-2" d="M80.55,56.94c.68-1.72,1.25-3.52,1.69-5.35l-.92-.27.77-2.68.71.2c.41-2.32.61-4.7.61-7.14,0-.27,0-.54-.01-.81l-.88-.25.74-2.54C81.43,16.75,63.53,0,41.71,0,18.68,0,0,18.66,0,41.71c0,5.37,1.01,10.51,2.87,15.23h9.12v-27.55c0-1.83,1.39-3.33,3.17-3.49h12.98l.88-4.58c.25-1.29,1.37-2.23,2.67-2.23h16.62c1.28,0,2.4.93,2.65,2.23l.9,4.58h12.96c1.44.13,2.62,1.12,3.03,2.46l-4.33.24.39,6.95,4.09-.22v6.38l-5.65,2.86,3.14,6.2,2.51-1.26v7.44h12.52ZM40,30.67c1.72,0,3.36.35,4.88.96h0c1.55.65,2.95,1.59,4.12,2.76h0v.02c1.17,1.17,2.12,2.56,2.76,4.12h0c.63,1.5.98,3.16.98,4.86s-.35,3.36-.98,4.88h0c-.65,1.55-1.59,2.95-2.76,4.12h0c-1.17,1.18-2.57,2.11-4.12,2.76h0c-1.52.63-3.16.98-4.88.98s-3.36-.35-4.86-.98h0c-1.56-.65-2.95-1.58-4.14-2.75h0c-1.17-1.18-2.12-2.59-2.76-4.14h0c-.62-1.52-.96-3.16-.96-4.88s.35-3.36.96-4.86h0c.65-1.56,1.59-2.95,2.76-4.12v-.02h0c1.18-1.17,2.57-2.11,4.14-2.75h0c1.5-.63,3.14-.98,4.86-.98h0ZM19.8,28.75c1.31,0,2.38,1.06,2.38,2.38s-1.07,2.4-2.38,2.4-2.4-1.07-2.4-2.4,1.07-2.38,2.4-2.38h0ZM46.08,37.34c-.8-.8-1.75-1.44-2.78-1.88-1.01-.41-2.12-.63-3.3-.63s-2.29.22-3.28.63c-1.04.44-1.99,1.07-2.78,1.88-.81.79-1.45,1.74-1.88,2.78-.41,1.01-.65,2.12-.65,3.28s.24,2.29.65,3.3c.43,1.03,1.07,1.97,1.88,2.78.79.81,1.74,1.44,2.78,1.86,1,.43,2.12.65,3.28.65s2.29-.22,3.3-.65c1.03-.43,1.97-1.06,2.78-1.86.79-.8,1.44-1.75,1.86-2.78.41-1.01.65-2.12.65-3.3s-.24-2.27-.65-3.28c-.43-1.04-1.07-1.99-1.86-2.78h0ZM63.31,44.88l6.9-3.51,2.51,4.96-6.9,3.49-2.51-4.94ZM64.27,29.27l7.74-.44.3,5.54-7.72.44-.32-5.54ZM72.89,37.21l4.56-.25.19,3.28-4.58.25-.17-3.28ZM76.55,43.51l4.58-.25.19,3.28-4.58.25-.19-3.28ZM71.34,48.89l4.58-.25.19,3.28-4.58.25-.19-3.28ZM77.64,32.05l3.44-1.85,1.33,2.46-3.44,1.86-1.33-2.48Z"/>
  </g>
</svg>