<?xml version="1.0" encoding="UTF-8"?>
<svg id="Capa_2" data-name="Capa 2" xmlns="http://www.w3.org/2000/svg" viewBox="0 0 402.69 93.31">
  <defs>
    <style>
      .cls-1 {
        fill: #141e27;
      }

      .cls-1, .cls-2, .cls-3 {
        fill-rule: evenodd;
      }

      .cls-4, .cls-2 {
        fill: #fff;
      }

      .cls-5, .cls-3 {
        fill: #fd0100;
      }

      .cls-6 {
        fill: #ed1b23;
      }
    </style>
  </defs>
  <g id="Layer_13" data-name="Layer 13">
    <path class="cls-2" d="M115.54,42.39h-18.89l-1.31-6.65c-.35-1.81-2.01-3.17-3.88-3.17h-24.13c-1.86,0-3.48,1.36-3.88,3.17l-1.31,6.65h-18.79c-2.12.2-3.83,1.66-4.48,3.63l6.3.3-.5,10.12-5.99-.3v9.22l8.26,4.18-4.58,9.02-3.68-1.81v11.48c0,2.77,2.32,5.09,5.09,5.09h71.27c2.82,0,5.09-2.32,5.09-5.09v-40.75c0-2.67-2.01-4.79-4.58-5.09ZM96.5,74.97c-.96,2.22-2.32,4.28-3.98,5.94h-.05c-1.66,1.71-3.73,3.12-5.99,4.03-2.22.91-4.53,1.41-7.05,1.41s-4.89-.5-7.1-1.41c-2.27-.91-4.28-2.32-5.94-4.03h-.1c-1.66-1.66-3.02-3.73-3.98-5.94-.86-2.22-1.41-4.63-1.41-7.1s.55-4.94,1.41-7.05c.96-2.32,2.32-4.33,3.98-6.04h.1c1.66-1.66,3.68-3.07,5.94-3.98v-.05c2.22-.91,4.58-1.36,7.1-1.36s4.84.45,7.05,1.36v.05c2.27.91,4.33,2.32,5.99,3.98h.05c1.66,1.71,3.02,3.73,3.98,6.04.96,2.12,1.41,4.53,1.41,7.05s-.45,4.89-1.41,7.1ZM108.79,53.52c-1.91,0-3.48-1.56-3.48-3.53,0-1.86,1.56-3.43,3.48-3.43s3.48,1.56,3.48,3.43c0,1.96-1.56,3.53-3.48,3.53ZM88.24,59.01c-1.16-1.16-2.52-2.06-4.08-2.72-1.46-.55-3.02-.91-4.73-.91s-3.32.35-4.79.91c-1.51.65-2.87,1.56-4.03,2.72-1.16,1.16-2.12,2.57-2.72,4.03-.65,1.46-.96,3.12-.96,4.84s.3,3.32.96,4.79c.6,1.51,1.56,2.87,2.72,4.03,1.16,1.16,2.52,2.06,4.03,2.72,1.46.55,3.07.96,4.79.96s3.27-.4,4.73-.96c1.56-.65,2.92-1.56,4.08-2.72,1.16-1.16,2.06-2.52,2.72-4.03.6-1.46.91-3.12.91-4.79s-.3-3.37-.91-4.84c-.65-1.46-1.56-2.87-2.72-4.03Z"/>
    <path class="cls-1" d="M91.86,67.87c0,1.66-.3,3.32-.91,4.79-.65,1.51-1.56,2.87-2.72,4.03-1.16,1.16-2.52,2.06-4.08,2.72-1.46.55-3.02.96-4.73.96s-3.32-.4-4.79-.96c-1.51-.65-2.87-1.56-4.03-2.72-1.16-1.16-2.12-2.52-2.72-4.03-.65-1.46-.96-3.12-.96-4.79s.3-3.37.96-4.84c.6-1.46,1.56-2.87,2.72-4.03,1.16-1.16,2.52-2.06,4.03-2.72,1.46-.55,3.07-.91,4.79-.91s3.27.35,4.73.91c1.56.65,2.92,1.56,4.08,2.72,1.16,1.16,2.06,2.57,2.72,4.03.6,1.46.91,3.12.91,4.84Z"/>
    <rect class="cls-5" x="34.65" y="65.43" width="8.11" height="11.23" transform="translate(-42.17 73.38) rotate(-63.07)"/>
    <polygon class="cls-3" points="44.13 47.33 32.92 46.7 32.44 54.72 43.66 55.35 44.13 47.33"/>
    <polygon class="cls-3" points="31.66 58.86 25 58.49 24.69 63.27 31.34 63.63 31.66 58.86"/>
    <polygon class="cls-3" points="26.31 68.03 19.66 67.61 19.39 72.39 26 72.8 26.31 68.03"/>
    <rect class="cls-5" x="28.01" y="74.71" width="4.78" height="6.67" transform="translate(-49.21 104.08) rotate(-86.83)"/>
    <polygon class="cls-3" points="24.69 51.37 19.71 48.69 17.77 52.26 22.8 54.93 24.69 51.37"/>
    <polygon class="cls-3" points="16.46 59.96 11.06 61.53 12.16 65.41 17.61 63.84 16.46 59.96"/>
    <polygon class="cls-3" points="18.24 75.47 12.79 77.05 13.95 80.93 19.39 79.35 18.24 75.47"/>
    <polygon class="cls-3" points="9.69 69.45 5.09 68.03 4.09 71.34 8.65 72.75 9.69 69.45"/>
    <polygon class="cls-3" points="11.06 54.04 6.45 52.62 5.45 55.93 10.01 57.34 11.06 54.04"/>
    <polygon class="cls-3" points="4.14 62.37 .73 61.32 0 63.73 3.36 64.79 4.14 62.37"/>
    <path class="cls-2" d="M91.86,67.87c0,1.66-.3,3.32-.91,4.79-.65,1.51-1.56,2.87-2.72,4.03-1.16,1.16-2.52,2.06-4.08,2.72-1.46.55-3.02.96-4.73.96s-3.32-.4-4.79-.96c-1.51-.65-2.87-1.56-4.03-2.72-1.16-1.16-2.12-2.52-2.72-4.03-.65-1.46-.96-3.12-.96-4.79s.3-3.37.96-4.84c.6-1.46,1.56-2.87,2.72-4.03,1.16-1.16,2.52-2.06,4.03-2.72,1.46-.55,3.07-.91,4.79-.91s3.27.35,4.73.91c1.56.65,2.92,1.56,4.08,2.72,1.16,1.16,2.06,2.57,2.72,4.03.6,1.46.91,3.12.91,4.84Z"/>
    <path class="cls-4" d="M161.54,45.29h1.68c1.52,0,2.62-.31,3.4-.94.73-.58,1.16-1.47,1.16-2.62s-.37-1.99-1-2.57c-.63-.52-1.62-.84-2.99-.84h-2.25v6.98ZM172.75,41.56c0,2.52-.79,4.46-2.36,5.77-1.57,1.36-3.83,1.99-6.71,1.99h-2.15v8.33h-4.93v-23.37h7.44c2.83,0,5.03.58,6.5,1.83,1.47,1.2,2.2,3.04,2.2,5.45h0ZM196.34,57.65h-4.98v-10.11h-9.23v10.11h-4.98v-23.37h4.98v9.17h9.23v-9.17h4.98v23.37ZM223.44,45.92c0,3.88-.94,6.86-2.88,8.96-1.89,2.04-4.67,3.09-8.23,3.09s-6.34-1.05-8.28-3.09c-1.88-2.1-2.88-5.09-2.88-8.96s1-6.87,2.94-8.91c1.89-2.04,4.66-3.09,8.23-3.09s6.34,1.05,8.28,3.09c1.89,2.1,2.83,5.03,2.83,8.91h0ZM206.4,45.92c0,2.62.47,4.61,1.47,5.92,1,1.31,2.46,1.99,4.46,1.99,3.93,0,5.92-2.62,5.92-7.91s-1.99-7.87-5.92-7.87c-1.94,0-3.46.63-4.46,1.99-.99,1.31-1.47,3.3-1.47,5.87h0ZM236.33,57.65h-4.98v-19.23h-6.35v-4.14h17.66v4.14h-6.34v19.23ZM266.84,45.92c0,3.88-.94,6.86-2.88,8.96-1.94,2.04-4.67,3.09-8.23,3.09s-6.34-1.05-8.28-3.09c-1.89-2.1-2.88-5.09-2.88-8.96s.99-6.87,2.88-8.91c1.94-2.04,4.72-3.09,8.28-3.09s6.34,1.05,8.28,3.09c1.89,2.1,2.83,5.03,2.83,8.91h0ZM249.8,45.92c0,2.62.47,4.61,1.47,5.92.99,1.31,2.46,1.99,4.46,1.99,3.93,0,5.92-2.62,5.92-7.91s-1.99-7.87-5.92-7.87c-1.94,0-3.46.63-4.46,1.99-1,1.31-1.47,3.3-1.47,5.87h0ZM280.56,44.5h9.28v12.16c-1.53.47-2.94.84-4.25,1.05-1.36.16-2.72.26-4.09.26-3.51,0-6.24-1.05-8.07-3.09-1.88-2.1-2.77-5.09-2.77-8.96s1.05-6.71,3.19-8.81c2.15-2.1,5.14-3.14,8.97-3.14,2.41,0,4.72.47,6.97,1.42l-1.68,3.98c-1.68-.9-3.46-1.31-5.29-1.31-2.15,0-3.88.73-5.14,2.2-1.31,1.41-1.94,3.35-1.94,5.76,0,2.57.53,4.51,1.57,5.82.99,1.36,2.51,1.99,4.51,1.99,1.05,0,2.1-.11,3.15-.31v-4.87h-4.41v-4.14ZM300.33,44.66h1.62c1.57,0,2.72-.27,3.46-.79.73-.53,1.1-1.36,1.1-2.46s-.37-1.89-1.1-2.36c-.79-.47-1.99-.74-3.56-.74h-1.52v6.35ZM300.33,48.69v8.96h-4.93v-23.37h6.81c3.15,0,5.5.58,7.02,1.73,1.52,1.15,2.31,2.93,2.31,5.24,0,1.42-.37,2.62-1.15,3.72-.74,1.05-1.83,1.88-3.2,2.46,3.51,5.3,5.82,8.7,6.87,10.22h-5.5l-5.56-8.96h-2.67ZM331.3,57.65l-1.68-5.55h-8.54l-1.68,5.55h-5.35l8.28-23.48h6.03l8.28,23.48h-5.35ZM328.42,47.9c-1.57-5.03-2.41-7.86-2.62-8.54-.21-.68-.36-1.21-.42-1.57-.37,1.36-1.36,4.77-3.04,10.11h6.08ZM344.56,45.29h1.62c1.52,0,2.68-.31,3.41-.94.79-.58,1.15-1.47,1.15-2.62s-.31-1.99-.94-2.57c-.62-.52-1.62-.84-2.99-.84h-2.25v6.98ZM355.73,41.56c0,2.52-.79,4.46-2.36,5.77-1.57,1.36-3.77,1.99-6.71,1.99h-2.1v8.33h-4.98v-23.37h7.49c2.83,0,4.98.58,6.45,1.83,1.47,1.2,2.2,3.04,2.2,5.45h0ZM379.31,57.65h-4.93v-10.11h-9.28v10.11h-4.93v-23.37h4.93v9.17h9.28v-9.17h4.93v23.37ZM392.47,43.92l4.93-9.65h5.29l-7.76,14.25v9.12h-4.93v-8.96l-7.7-14.41h5.35l4.82,9.65Z"/>
    <path class="cls-6" d="M168.98,83.6c0,1.68-.63,3.04-1.83,4.03-1.26,1-2.99,1.47-5.19,1.47-1.99,0-3.77-.37-5.35-1.16v-3.72c1.26.58,2.36.99,3.25,1.21.89.26,1.68.36,2.41.36.89,0,1.57-.15,2.04-.52.47-.31.74-.84.74-1.52,0-.37-.11-.68-.31-1-.21-.26-.53-.58-.94-.84-.37-.26-1.21-.68-2.46-1.26-1.15-.58-1.99-1.1-2.57-1.57-.63-.53-1.05-1.1-1.42-1.79-.36-.63-.52-1.41-.52-2.31,0-1.68.58-2.99,1.73-3.98,1.1-.94,2.68-1.41,4.72-1.41,1,0,1.94.1,2.83.31.89.26,1.83.58,2.77.99l-1.25,3.15c-1.05-.42-1.89-.68-2.52-.9-.68-.15-1.36-.21-1.99-.21-.73,0-1.31.16-1.73.52-.42.37-.63.79-.63,1.36,0,.37.1.68.26.94.16.27.42.53.79.79.36.21,1.2.68,2.57,1.31,1.73.84,2.99,1.73,3.61,2.57.68.84,1,1.88,1,3.14h0ZM179.72,88.84h-3.98v-15.62h-5.19v-3.35h14.36v3.35h-5.19v15.62ZM203.26,69.87v12.27c0,1.41-.31,2.67-.94,3.72s-1.52,1.83-2.68,2.41c-1.21.58-2.62.84-4.25.84-2.41,0-4.3-.63-5.66-1.89s-2.04-2.94-2.04-5.14v-12.21h4.03v11.64c0,1.47.27,2.51.84,3.2.63.68,1.57,1.05,2.93,1.05s2.31-.37,2.88-1.05c.58-.68.9-1.79.9-3.25v-11.58h3.98ZM223.64,79.14c0,3.14-.89,5.56-2.62,7.18-1.78,1.68-4.35,2.51-7.71,2.51h-5.4v-18.97h5.98c3.09,0,5.5.79,7.18,2.46,1.73,1.62,2.57,3.88,2.57,6.81h0ZM219.51,79.25c0-4.03-1.83-6.08-5.4-6.08h-2.15v12.37h1.73c3.88,0,5.82-2.1,5.82-6.29h0ZM227.63,88.84v-18.97h3.98v18.97h-3.98ZM253.63,79.35c0,3.14-.74,5.55-2.31,7.23-1.57,1.68-3.83,2.52-6.71,2.52s-5.14-.84-6.71-2.52c-1.57-1.68-2.36-4.14-2.36-7.28s.79-5.55,2.36-7.23c1.57-1.68,3.83-2.52,6.71-2.52s5.19.84,6.71,2.52c1.57,1.68,2.31,4.09,2.31,7.28h0ZM239.79,79.35c0,2.1.42,3.67,1.21,4.77.78,1.05,1.99,1.63,3.62,1.63,3.2,0,4.82-2.15,4.82-6.39s-1.62-6.45-4.82-6.45c-1.57,0-2.78.53-3.62,1.62-.79,1.1-1.21,2.68-1.21,4.83h0Z"/>
    <path class="cls-5" d="M24.11,48.48c2.2-11.22,7.7-21.23,15.46-28.99C49.74,9.33,63.84,3.04,79.4,3.04s29.67,6.29,39.84,16.46c10.22,10.22,16.51,24.32,16.51,39.89,0,12.73-4.25,24.48-11.37,33.91h3.72c6.71-9.64,10.64-21.33,10.64-33.91,0-16.4-6.6-31.24-17.34-41.98C110.64,6.66,95.81,0,79.4,0s-31.23,6.66-41.93,17.4c-7.97,7.97-13.68,18.19-16.14,29.61l2.78,1.47Z"/>
  </g>
</svg>