<?xml version="1.0" encoding="UTF-8"?>
<svg id="Capa_1" data-name="Capa 1" xmlns="http://www.w3.org/2000/svg" viewBox="0 0 198.83 46.07">
  <defs>
    <style>
      .cls-1 {
        fill: #fefefe;
      }

      .cls-1, .cls-2, .cls-3, .cls-4 {
        fill-rule: evenodd;
      }

      .cls-2, .cls-5 {
        fill: #0a0a0a;
      }

      .cls-3, .cls-6 {
        fill: #ed1b23;
      }

      .cls-7, .cls-4 {
        fill: #fd0100;
      }
    </style>
  </defs>
  <path class="cls-2" d="M57.04,20.94c1.27.13,2.28,1.19,2.28,2.51v20.11c0,1.37-1.11,2.51-2.51,2.51H21.61c-1.37,0-2.51-1.14-2.51-2.51v-5.67l1.81.91,2.25-4.45-4.06-2.07v-4.56l2.95.16.26-4.99-3.1-.16c.31-.98,1.16-1.68,2.2-1.79h9.29l.65-3.29c.18-.91.98-1.58,1.92-1.58h11.9c.93,0,1.73.67,1.92,1.58l.65,3.29h9.32ZM53.73,22.98c-.96,0-1.73.78-1.73,1.71s.78,1.73,1.73,1.73,1.71-.78,1.71-1.73-.77-1.71-1.71-1.71h0Z"/>
  <path class="cls-1" d="M39.21,24.38c-1.24,0-2.41.23-3.49.67v.03c-1.11.44-2.12,1.14-2.95,1.96h-.03c-.83.85-1.5,1.84-1.96,2.98h0c-.44,1.06-.7,2.25-.7,3.49s.26,2.41.7,3.49h0c.46,1.11,1.14,2.12,1.96,2.95h.03c.83.85,1.84,1.53,2.95,1.99h0c1.09.44,2.25.7,3.49.7s2.41-.26,3.5-.7h0c1.11-.47,2.12-1.14,2.95-1.99h.02c.83-.83,1.5-1.84,1.97-2.95h0c.47-1.09.7-2.28.7-3.49s-.23-2.43-.7-3.49h0c-.47-1.14-1.14-2.12-1.97-2.98h-.02c-.83-.83-1.84-1.53-2.95-1.96v-.03c-1.09-.44-2.25-.67-3.5-.67h0Z"/>
  <rect class="cls-7" x="17.11" y="32.31" width="4" height="5.54" transform="translate(-20.82 36.23) rotate(-63.07)"/>
  <polygon class="cls-4" points="21.79 23.37 16.25 23.06 16.02 27.02 21.56 27.33 21.79 23.37"/>
  <polygon class="cls-4" points="15.63 29.06 12.35 28.88 12.19 31.24 15.48 31.42 15.63 29.06"/>
  <polygon class="cls-4" points="12.99 33.59 9.71 33.39 9.58 35.74 12.84 35.95 12.99 33.59"/>
  <rect class="cls-7" x="13.83" y="36.89" width="2.36" height="3.29" transform="translate(-24.3 51.39) rotate(-86.83)"/>
  <polygon class="cls-4" points="12.19 25.36 9.73 24.04 8.77 25.8 11.26 27.12 12.19 25.36"/>
  <polygon class="cls-4" points="8.13 29.61 5.46 30.38 6 32.3 8.7 31.52 8.13 29.61"/>
  <polygon class="cls-4" points="9.01 37.27 6.31 38.04 6.89 39.96 9.58 39.18 9.01 37.27"/>
  <polygon class="cls-4" points="4.79 34.29 2.51 33.59 2.02 35.22 4.27 35.92 4.79 34.29"/>
  <polygon class="cls-4" points="5.46 26.68 3.18 25.98 2.69 27.61 4.94 28.31 5.46 26.68"/>
  <polygon class="cls-4" points="2.05 30.8 .36 30.28 0 31.47 1.66 31.99 2.05 30.8"/>
  <path class="cls-3" d="M34.86,29.14c.57-.57,1.24-1.03,1.99-1.35.72-.28,1.53-.44,2.35-.44s1.63.16,2.36.44c.75.31,1.42.78,1.99,1.35.6.57,1.03,1.27,1.35,1.99.31.72.46,1.53.46,2.38s-.16,1.63-.46,2.36c-.31.75-.75,1.42-1.35,1.99-.57.57-1.24,1.03-1.99,1.35-.72.29-1.5.47-2.36.47s-1.63-.18-2.35-.47c-.75-.31-1.42-.77-1.99-1.35s-1.03-1.24-1.35-1.99c-.31-.72-.47-1.53-.47-2.36s.16-1.66.47-2.38.78-1.42,1.35-1.99h0Z"/>
  <path class="cls-5" d="M79.76,22.36h.83c.75,0,1.29-.16,1.68-.47.36-.28.57-.72.57-1.29s-.18-.98-.49-1.27c-.31-.26-.8-.42-1.47-.42h-1.11v3.44ZM85.3,20.52c0,1.24-.39,2.2-1.16,2.85-.78.67-1.89.98-3.31.98h-1.06v4.11h-2.43v-11.54h3.67c1.4,0,2.48.28,3.21.91.73.59,1.09,1.5,1.09,2.69h0ZM96.95,28.47h-2.46v-4.99h-4.56v4.99h-2.46v-11.54h2.46v4.53h4.56v-4.53h2.46v11.54ZM110.33,22.67c0,1.91-.47,3.39-1.42,4.43-.93,1.01-2.3,1.53-4.06,1.53s-3.13-.52-4.09-1.53c-.93-1.04-1.42-2.51-1.42-4.43s.49-3.39,1.45-4.4c.93-1.01,2.3-1.53,4.06-1.53s3.13.52,4.09,1.53c.93,1.03,1.4,2.48,1.4,4.4h0ZM101.92,22.67c0,1.29.23,2.28.72,2.92.49.65,1.22.98,2.2.98,1.94,0,2.92-1.29,2.92-3.91s-.98-3.88-2.92-3.88c-.96,0-1.71.31-2.2.98-.49.65-.72,1.63-.72,2.9h0ZM116.69,28.47h-2.46v-9.5h-3.13v-2.05h8.72v2.05h-3.13v9.5ZM131.75,22.67c0,1.91-.47,3.39-1.42,4.43-.96,1.01-2.3,1.53-4.06,1.53s-3.13-.52-4.09-1.53c-.93-1.04-1.42-2.51-1.42-4.43s.49-3.39,1.42-4.4c.96-1.01,2.33-1.53,4.09-1.53s3.13.52,4.09,1.53c.93,1.03,1.4,2.48,1.4,4.4h0ZM123.34,22.67c0,1.29.23,2.28.72,2.92.49.65,1.22.98,2.2.98,1.94,0,2.92-1.29,2.92-3.91s-.98-3.88-2.92-3.88c-.96,0-1.71.31-2.2.98-.49.65-.72,1.63-.72,2.9h0ZM138.53,21.97h4.58v6c-.75.23-1.45.41-2.1.52-.67.08-1.35.13-2.02.13-1.73,0-3.08-.52-3.99-1.53-.93-1.04-1.37-2.51-1.37-4.43s.52-3.31,1.58-4.35c1.06-1.03,2.54-1.55,4.43-1.55,1.19,0,2.33.23,3.44.7l-.83,1.97c-.83-.44-1.71-.65-2.61-.65-1.06,0-1.92.36-2.54,1.09-.65.7-.96,1.66-.96,2.85,0,1.27.26,2.22.78,2.87.49.67,1.24.98,2.22.98.52,0,1.03-.05,1.55-.16v-2.41h-2.18v-2.05ZM148.29,22.05h.8c.78,0,1.35-.13,1.71-.39.36-.26.54-.67.54-1.22s-.18-.93-.54-1.16c-.39-.23-.98-.36-1.76-.36h-.75v3.13ZM148.29,24.04v4.43h-2.43v-11.54h3.36c1.55,0,2.72.28,3.47.86.75.57,1.14,1.45,1.14,2.59,0,.7-.18,1.29-.57,1.84-.36.52-.91.93-1.58,1.21,1.73,2.62,2.87,4.3,3.39,5.05h-2.72l-2.74-4.43h-1.32ZM163.59,28.47l-.83-2.74h-4.22l-.83,2.74h-2.64l4.09-11.59h2.98l4.09,11.59h-2.64ZM162.16,23.65c-.78-2.48-1.19-3.88-1.29-4.22-.1-.34-.18-.6-.21-.78-.18.67-.67,2.36-1.5,4.99h3ZM170.13,22.36h.8c.75,0,1.32-.16,1.68-.47.39-.28.57-.72.57-1.29s-.16-.98-.47-1.27c-.31-.26-.8-.42-1.47-.42h-1.11v3.44ZM175.65,20.52c0,1.24-.39,2.2-1.17,2.85-.78.67-1.86.98-3.31.98h-1.03v4.11h-2.46v-11.54h3.7c1.4,0,2.46.28,3.18.91.72.59,1.09,1.5,1.09,2.69h0ZM187.29,28.47h-2.43v-4.99h-4.58v4.99h-2.43v-11.54h2.43v4.53h4.58v-4.53h2.43v11.54ZM193.79,21.69l2.43-4.76h2.61l-3.83,7.04v4.5h-2.43v-4.43l-3.8-7.12h2.64l2.38,4.76Z"/>
  <path class="cls-6" d="M83.44,41.28c0,.83-.31,1.5-.91,1.99-.62.49-1.48.73-2.56.73-.98,0-1.86-.18-2.64-.57v-1.84c.62.28,1.17.49,1.61.6.44.13.83.18,1.19.18.44,0,.78-.08,1.01-.26.23-.16.36-.42.36-.75,0-.18-.05-.34-.16-.49-.1-.13-.26-.28-.47-.41-.18-.13-.6-.34-1.22-.62-.57-.28-.98-.54-1.27-.77-.31-.26-.52-.54-.7-.88-.18-.31-.26-.7-.26-1.14,0-.83.28-1.47.85-1.97.54-.46,1.32-.7,2.33-.7.49,0,.96.05,1.4.16.44.13.91.28,1.37.49l-.62,1.55c-.52-.21-.93-.34-1.24-.44-.34-.08-.67-.1-.98-.1-.36,0-.65.08-.85.26-.21.18-.31.39-.31.67,0,.18.05.34.13.47.08.13.21.26.39.39.18.1.59.34,1.27.65.85.41,1.47.85,1.78,1.27.34.41.49.93.49,1.55h0ZM88.74,43.87h-1.97v-7.71h-2.56v-1.66h7.09v1.66h-2.56v7.71ZM100.36,34.5v6.06c0,.7-.15,1.32-.46,1.84s-.75.91-1.32,1.19c-.6.28-1.29.42-2.1.42-1.19,0-2.12-.31-2.8-.93s-1.01-1.45-1.01-2.54v-6.03h1.99v5.75c0,.72.13,1.24.42,1.58.31.34.77.52,1.45.52s1.14-.18,1.42-.52c.29-.34.44-.88.44-1.61v-5.72h1.97ZM110.43,39.08c0,1.55-.44,2.74-1.29,3.55-.88.83-2.15,1.24-3.81,1.24h-2.66v-9.37h2.95c1.53,0,2.72.39,3.54,1.22.86.8,1.27,1.91,1.27,3.36h0ZM108.39,39.13c0-1.99-.91-3-2.67-3h-1.06v6.11h.85c1.91,0,2.87-1.03,2.87-3.11h0ZM112.39,43.87v-9.37h1.97v9.37h-1.97ZM125.23,39.18c0,1.55-.36,2.74-1.14,3.57-.78.83-1.89,1.24-3.31,1.24s-2.54-.42-3.31-1.24c-.78-.83-1.17-2.05-1.17-3.6s.39-2.74,1.17-3.57c.77-.83,1.89-1.24,3.31-1.24s2.56.42,3.31,1.24c.77.83,1.14,2.02,1.14,3.6h0ZM118.4,39.18c0,1.03.21,1.81.6,2.35.39.52.98.8,1.79.8,1.58,0,2.38-1.06,2.38-3.16s-.8-3.18-2.38-3.18c-.78,0-1.37.26-1.79.8-.39.54-.6,1.32-.6,2.38h0Z"/>
  <path class="cls-7" d="M11.91,23.94c1.09-5.54,3.8-10.48,7.63-14.31C24.56,4.61,31.52,1.5,39.21,1.5s14.65,3.11,19.67,8.13c5.04,5.05,8.15,12.01,8.15,19.69,0,6.29-2.1,12.09-5.62,16.74h1.84c3.31-4.76,5.25-10.53,5.25-16.74,0-8.1-3.26-15.42-8.56-20.73C54.63,3.29,47.31,0,39.21,0s-15.42,3.29-20.7,8.59c-3.93,3.93-6.75,8.98-7.97,14.62l1.37.73Z"/>
</svg>